<svg width="16" height="16" viewBox="0 0 16 16" fill="none" xmlns="http://www.w3.org/2000/svg">
<path d="M4.86072 13.8826L1.33338 14.6666L2.11738 11.1393C1.60107 10.1735 1.33173 9.09502 1.33338 7.99992C1.33338 4.31792 4.31805 1.33325 8.00005 1.33325C11.682 1.33325 14.6667 4.31792 14.6667 7.99992C14.6667 11.6819 11.682 14.6666 8.00005 14.6666C6.90495 14.6682 5.82646 14.3989 4.86072 13.8826V13.8826ZM5.05405 12.4739L5.48938 12.7073C6.26175 13.12 7.12431 13.3351 8.00005 13.3333C9.05488 13.3333 10.086 13.0205 10.9631 12.4344C11.8402 11.8484 12.5237 11.0154 12.9274 10.0409C13.3311 9.06636 13.4367 7.994 13.2309 6.95944C13.0251 5.92487 12.5172 4.97456 11.7713 4.22868C11.0254 3.4828 10.0751 2.97485 9.04053 2.76906C8.00596 2.56328 6.93361 2.66889 5.95907 3.07256C4.98453 3.47623 4.15158 4.15982 3.56554 5.03688C2.97951 5.91394 2.66671 6.94509 2.66671 7.99992C2.66671 8.88925 2.88338 9.74525 3.29338 10.5106L3.52605 10.9459L3.08938 12.9106L5.05405 12.4739V12.4739Z" fill="#878787"/>
</svg>
